<svg xmlns="http://www.w3.org/2000/svg" version="1.1" viewBox="-3 -3 1818 1766" width="453" height="440"><g id="deeditor_bgCarrier" stroke-width="0">
    <rect id="dee_c_e" x="-3" y="-3" width="1818" height="1766" rx="0" fill="#ffffff" strokewidth="0"/>
  </g>
<path transform="translate(1279,906)" d="m0 0h54l23 2 31 6 15 5 18 7 21 11 16 11 11 9 10 9 12 12 12 16 11 17 8 16 5 12 8 25 7 34 2 24v90l-3 3 3 1 1 2v275l-2 1h-44l-9-10-9-11-11-12-9-11-12-14-13-15-9-10-9-11-13-15-9-11-11-12-7-8-9-10-5-6-2-1 1 9-1 147-1 1h-66l-1-1-1-13v-262h53l5 5 13 15 9 10 18 22 12 14 8 9v2h2l7 8 12 14 9 10 9 11 11 12 14 15 1 1 1-148 6-1 13-1-1-4v-22l-1-17-1-3-64 2h-5l-1-2 7-11 6-12 6-19 3-16 1-14v-14l-1-14-4-17-6-15-10-16-10-12-8-7-12-9-15-9-12-6-21-6-14-2-37-2h-4v2l10 3 16 8 10 7 10 9 9 12 8 16 3 13 1 7v25l-3 14-5 12-6 10-10 11-5 5-10 8-14 7-11 3-19 2-19-1-15-4-15-8-13-10-9-10-10-17-4-11-3-13v-22l4-17 5-12 6-11 9-11 15-12 11-6 13-7-13 2-18 6-13 8-12 9-7 8-7 10-7 14-4 13-2 15v16l3 20 6 18 8 14 8 10 11 12 12 11 5 3v3l-6-1-21-10-13-10-12-12-9-13-5-10-5-21-1-8v-19l3-19 1-9 5-8 3-8-7 1-32 2-58 6-26 2-43 5-47 5-53 6-95 13-32 5-40 7-11 2-42 8-27 6-55 13-14 4-24 5-24 9-16 8-11 4-8 1-3-1v-2l-3-1v-5l13-4 20-7 10-5 14-3h6l1 1h8l21-6 25-12 21-11 24-10 30-12 18-7 5-2-23 3-20 4-18 4-44 12-14 4-34 11-14 4-24 8-15 6-40 15-25 11-31 15-16 8-23 12-16 9-20 12-19 12-9 3 2-4 13-11 11-9 10-7 13-10 39-26 17-11 22-13 15-9 18-10 22-12 23-11 28-13 26-10 30-12 28-9 20-6 28-8 32-9 22-5 11-3 25-5 36-8 16-3 80-16 29-5 49-8 57-9 67-8 38-4 34-4 46-4 27-3zm-9 108-10 2-12 7-7 6-6 11-3 12v11l4 13 7 10 13 8 13 3h11l12-3 12-8 6-7 4-8 2-8v-13l-2-9-5-9-7-8-14-8-10-2z" fill="#000000"/>
<path transform="translate(1207,423)" d="m0 0h68l49 6 33 5 48 9 12 2 14 1 32 1 43 4 30 4 44 12 19 6 6 3 5 6 6 16 9 32 8 21 3 12v7l-6 18-5 9-6 8-4 4h-2l1-4 5-8 4-14 2-13-11-2-18-1-2-2-2-5-10-3-46-7-48-3-17-4 1 11 8 8 6 2 9 1v2h-11l-9-5-11-12-10-9-20-13-9-5-4-1v-2l-9-3-9-2h-28l-15 3-21 9-11 7-11 9-6 5h-2l-2 4-5 6-15 37-7 19-2-1v-17l8-25v-3l4-4-13 5-6 2-2 4-4 3-27 7-28 6-60 14-30 8-48 12-37 10-46 13-44 13-48 14-29 8-17 5-10 1 4 6 5 6v2l-15-6-15-3h-22l-20 4-21 8-17 6-20 7-38 12-29 10-15 5-43 15-16 6-68 25-15 6-29 12-21 9-22 10-27 12-33 16-26 14-14 8-19 12-15 10-17 12-16 12-12 11-8 7-7 7-7 8-8 9-10 13-10 15-8 10h-2l-2 5-8 15-10 26-4 14-1 7-1 36-3-3-3-10-2-14-3-30-1-9v-54l3-21 4-21 9-26 9-19 15-23 11-13 4-5 8-7 15-13 12-8 16-10 22-11 26-11 15-7 22-10 12-5 17-9 31-12 34-13 27-8 18-6 22-8 31-10 13-4 105-35 18-5 10-4 33-10 25-8 31-9 46-15 13-5 20-6 19-6h2l-1-2-9 1-38 9-31 8-33 8-40 11-38 11-26 7-16 6-13 4-3-1 9-4 12-5 15-5 18-7 29-10 10-4 18-6 25-9 36-12 52-17 30-10 24-7 37-10 24-5 31-5 21-4 26-4 36-6 32-6 23-4 5-1h7l2 4-2 2-99 25-24 7-38 11-27 8-64 20-25 10-11 4-15 5 1 2-5 1h11v3l-10 2-16 8-35 11-42 15-15 5-23 10-17 7-20 9-10 5 16-4 20-6 11-4 34-11 42-12 17-5 41-11 29-8 35-9 95-26 24-7 25-7 28-8 30-9 31-9 67-19 23-7 38-11 30-9 35-10 29-7 22-2h32l26 3 22 4h6l-17-9-34-11-15-2h-24l-29 3-36 7-47 10-13 3h-7l-6-2v-3l10-2 48-11 55-11 31-3h74l10 1 5 5v2h2v2l4 2 11 8 7 3 25 4 47 5 38 5h5l-5-16-3-4-43-8-24-6-17-3-35-4-14-1-70-3-47-5-36-5-15-2h-12l-14 7-27 7-73 17-33 7-18 4h-7l-2-1 2-4 5-2v-2h2v-3l3-1 2-4-4-1-21 5-17 4-18 3h-4v-3l21-6 20-7 10-4v-4h-10l-38 5-30 5-20 2-33 7-43 13-31 10-57 19-19 7-22 8-23 8-33 11h-2l1-3 12-5 39-15 89-31 12-4 20-7 16-6 12-4 51-18 16-5 26-8 36-10 36-9 26-6 43-6zm269 87 3 3 12 6 30 10 30 7 28 7 19 3h15l1-7-3-9-24-5-46-7-45-5-17-3zm-172 40m-1 1m-2 1-2 3 4-2zm-4 4v3l3-3zm-2 2m-1 1m-421 41m-4 1m-139 95-35 9-51 18-21 8-11 5 4 1 31-10 27-9 43-14 15-5 1-3zm-121 41m-2 1m-346 139-11 8-7 6-19 19-3 4v2h-2l-11 15-12 20-4 8-2 14v7l2 1v-2h3l10-19 10-16 13-20 13-17 7-7 9-11 7-8v-4z" fill="#000000"/>
<path transform="translate(1693,645)" d="m0 0 3 1-8 23-6 16-7 3-36 8-46 11-52 13-58 14-22 5-37 9-12 3-20 4-32 8-1 4-5 1-4 3 8 1-2 4 16-3 15-2 24-6 11-3 3 1 2 3 7 3v3h-2v2l-6 1h-11l-16 5-29 7-15 4-13 4-15 3-6 3-1 1h10l19-5 63-14 46-10 54-11 100-24 12-3h9l-3 11-3 3-21 6-70 17-52 12-108 27-19 5h-2l-1 8 32-6 113-27 29-6 14-2h10l1 5-4 5-8 3-25 8-63 16-55 13-82 19-65 13-27 5-20 4-14 1 1-3 8-4 9-3 2-1 6-1 5-1v-2l2-1-11 1-10 3h-3v-2l-10 2-25 3-25 5-42 10-49 11-24 6-89 20-41 9-29 6-36 8-55 12-42 9-39 9-41 11-25 7-7 2v-3l11-4 78-26 13-4 35-10 20-6 35-9 21-6 40-10 13-3 52-13 41-10 22-6 24-6 42-11 17-5 28-7 28-6 38-9 32-8 13-3 2-2-4-1-15 3-47 10-25 5-18 4-15 4-13 3-35 7-14 3-19 5-20 4-25 6-21 5-29 6-30 8h-7l1-2 36-9 21-8 20-6 21-6 7-3 26-6 26-7 12-4 22-5 33-9 40-10 36-8 34-8 19-4 10-3 21-4 17-5 30-6h7l2-1 7-1-1-5-3-6h-4v4l-6 2-5 4-10 1-5-2v-4l-22 4h-5v-3l-8 1-9 3-33 7-30 7-44 11-47 11-38 10-29 7-19 5-69 18-35 9-36 10-24 6-51 14-70 20-30 9-26 8-25 8-29 9-25 9-24 8-49 18-13 5-27 11-50 21-15 7-16 8-16 7-16 9-16 8-21 12-23 14-10 7-16 11-13 10-10 8-4 4h-2v2l-8 7-11 11-1 2h-2l-2 4-7 8-5 6-6 1-5-6 2-9 13-21 9-15 9-13 3-4h2l2-4 11-12 7-8h2v-2h2v-2h2l2-4h2v-2h2v-2l8-7 11-10 19-14 18-12 20-12 16-9 18-10 16-7 16-8 28-12 24-10 28-11 26-10 27-10 22-8 43-14 25-8 15-4 26-8 34-9 18-5 47-13 25-6 54-15 34-8 41-10 101-24 70-16 19-4 26-6 65-14 63-14 120-25 20-5 25-5 35-8 39-8 30-7 28-6 22-5 33-7 31-7 15-4zm-340 119m-5 1m-4 1m-12 2m-9 2 2 3v-2l2-1zm-4 1m-5 1m39 3m-15 1m-37 56-36 6-10 4-5 5-10 5v3h-3v-2l-10 2-1 2h13l9-3 24-6 16-5 14-4 3-3v-4z" fill="#000000"/>
<path transform="translate(750,1218)" d="m0 0h132l19 2 13 4 14 6 13 9 13 13 8 14 3 8 2 9 1 17-2 14-3 10-9 14-7 7-10 7-5 1 1 3 12 4 11 7 6 5 8 10 5 12 3 12 1 10-2 16-4 14 3 1 2-5 8-15 13-30 12-27 11-26 6-13 14-32 12-28 13-30 8-19 2-4h68l4 4 11 25 40 90 18 41 19 42 19 43 11 25 2 5-1 1h-72l-4-6-13-31-6-15-1-2h-113l-5 1-7 19-10 25-4 8-2 2-281-1-1-1v-274zm73 60-7 1v51h61l13-2 9-6 3-3 3-8 1-4v-7l-4-11-7-7-9-3-6-1zm290 19-6 10-6 15-15 38-8 21v2l11 1h58l1-3-7-20-11-27-10-24-6-13zm-297 88v52l4 1h67l13-3 9-6 6-8 1-3v-10l-4-10-6-7-13-5-4-1z" fill="#000000"/>
<path transform="translate(483,1218)" d="m0 0h141l16 2 16 6 13 7 9 7 10 9 10 13 7 15 4 16 2 13v18l-5 26-8 16-6 9-9 10-6 6h-2l1 6 8 14 6 11 15 27 13 23 11 20v2h-74l-7-10-12-20-6-12-13-23-9-17-58-1 1 47v35l-1 1h-67l-1-6v-269zm99 60-32 1v38l1 37h52l17-2 8-3 9-7 6-8 2-7v-21l-4-10-9-10-8-5-14-3z" fill="#000000"/>
<path transform="translate(233,1217)" d="m0 0 4 1 1 165 3 14 9 16 9 9 11 7 13 5 9 2h26l11-3 13-5 10-7 4-2 2-4 6-8 5-11 2-10 1-168 5-1 64 1 1 3-1 169-2 15-6 20-8 16-11 15h-2l-2 4-8 8-13 10-13 8-11 5-26 8-17 2h-31l-21-2-25-8-16-8-11-7-12-11-12-12-10-14-8-16-7-22-1-10v-172l1-1z" fill="#000000"/>
<path transform="translate(607,354)" d="m0 0h4l1 7v198l-1 12-4 6-8 10-1 2 28-7 10-4 44-15 87-29 27-7 5-2h3v2l-16 8-33 14-7 4-24 11-16 8-27 14-16 7-6 3h2l11-2 27-1-1 4-10 4-16 5-30 12-13 6-50 20-12 5-63 24-15 6-21 7-21 8-30 11-14 6-11 4-40 16-14 5-16 7-31 13-29 12-20 8-15 7-27 13-27 11-20 8-23 10-15 8-10 5-2-1 5-5 13-7 6-4h2l2-6 8-7 1-7 1-1h7l5 5v3l6-3h2v-2l11-3 15-7 14-7h3v-3l15-8 4-1 2-7 16-9 19-7 26-11 22-9 14-5 30-11 22-9 40-15 7-5 6-2v-3l-4 2-1-1-16 4-46 17-15 5-37 13-53 19-170 61-54 22-5 1 1-3 11-6 36-17 33-15 25-12 21-10 18-10 32-16 24-9 9-4 19-7 27-11 18-6 21-8 21-7 27-11 18-6 43-15 18-7 25-9 10-4 18-6 14-4 21-8 12-6 25-7 10-4 10-5 1-3h-8v2l-5 1-4-1-10 4-11 9-6 3-4-1-5-7-1-9-1-24v-54l-1-134 3-3 21-7 25-7zm-27 234m73 9m-3 1-2 1 1 2 4-3zm-5 2-4 3 5-1 1-2zm-8 4m-162 57-15 6-1 5 11-2 8-5v-4z" fill="#000000"/>
<path transform="translate(808,101)" d="m0 0 7 1 28 16 22 13 25 14 25 15 2 7v98l-2 211-3 3-24 7-19 7-37 13-19 7h-4l-1-176z" fill="#000000"/>
<path transform="translate(765,279)" d="m0 0h7l1 1v240l-1 6-9 3-11 1-5-10-3-5-6 15-4 7-16 6-26 8-39 14-15 6-5 1-1-50v-207l3-3 24-7 33-8 21-5 31-8z" fill="#000000"/>
<path transform="translate(1145,1031)" d="m0 0 1 4-9 24-2 17v21l2 14v8l-9 3-100 6-46 4-14 2-2-3v-14l1-13-46 6-37 6-28 4-64 11-38 5-89 13-62 8-34 6-43 6-23 4-4-1 10-5 14-4 18-3 7-3 21-5 20-5 3-1 7-1 15-3 5-2 12-2 11-2h-20l-23 6-18 3-10 3-17 1-8 3-3-1 9-6 6-3 13-4 5-4 19-11 19-7 40-12 34-9 22-5 42-9 49-9 38-6 66-10 51-7 19-2 72-8 56-5 8-1zm-495 102 4 1zm-4 1 4 1z" fill="#000000"/>
<path transform="translate(680,769)" d="m0 0h8v18l2 4 3 15 4 6 3 6-2 4-9 4-42 13-36 13-25 9-27 10-22 9-26 11-19 8-9 4-16 8-18 8-16 8-23 12-34 20-19 12-10 6-16 11-15 11-14 11-13 11-12 10-8 7h-2v2l-17 17-9 11-11 15-12 19-9 16-8 15-11 27-6 17-1 2h-3l-2-8-1-6v-10l3-26 10-40 6-18 8-19 10-20 12-20 7-10 11-15h2v-2h2v-2h2l2-4 12-13 7-7 11-9 11-10 15-11 17-12 12-8 21-12 17-10 15-8 8-4 21-10 26-12 19-8 29-12 26-10 27-10 20-7 41-14 15-5 43-14z" fill="#000000"/>
<path transform="translate(952,163)" d="m0 0 5 1 23 13 15 9 28 17 5 4 1 2-1 227-3 3-14 5-24 7-31 11-5-1v-199z" fill="#000000"/>
<path transform="translate(1374,539)" d="m0 0h20l11 3 16 8 11 8 7 7 8 13 4 10 4 16v11l-6 25-7 14-7 9-7 7-14 9-20 7-5 1h-16l-10-3-15-6-13-9-8-8-9 1-43 10-22 4-25 5-28 6-63 14-46 10-19 4-37 8-24 5-47 11-40 10-19 4-6 2-4-1 1-2 56-17 44-11 24-7 28-8 68-17 19-5 32-8 35-8 17-4 22-5 63-15 13-1-5-21v-18l4-19 8-16 4-7h2l2-4 7-7 11-7 14-6zm-19 16-8 3-11 8v2h-2l-6 8-7 14-3 9v15l2 3 4-1 3-16 8-19 8-11 10-9 6-5zm22 22-11 4-9 7-6 8-4 9-1 12 2 16 5 10 7 6 17 4h3v3l-6 2-10 4-11 2 1 2h4v3l5 2h5v-6l4 1 2 4 2 1h14l9-3 10-5 7-6v-2h2l7-10 5-14v-16l-5-15-6-9-7-7-12-6-4-1z" fill="#000000"/>
<path transform="translate(1341,1594)" d="m0 0h27l121 1 18 1 7 2-2 2-17 2-58 3-15 3h-3v2h-6v4l5 1 11 5 12 2-1 2v1l14 3 49 4 7 2v2l-13 1h-309l-29-1-5-5-2-13v-8l2-10 5-5z" fill="#000000"/>
<path transform="translate(500,456)" d="m0 0 2 1 1 15v27l-1 58v40l-2 15-5 6-8 4-6 2-14 2-14 4-14 5h-6l-1-2-1-153 4-3 22-8 17-5z" fill="#000000"/>
<path transform="translate(528,1553)" d="m0 0h25l5 6 7 12 11 16 10 15 7 10 1 4 5-5 7-11 11-15 12-19 8-11 2-2h22l1 1v127l-2 1h-16l-8-1-1-1-1-71-4 4-11 16-14 20-9 11-3-1-10-14-13-18-10-13-4-5-1 72-2 1h-24l-1-2z" fill="#000000"/>
<path transform="translate(387,570)" d="m0 0h2l1 2 1 20-2 36-2 14-4 6-10 5-8 2 1-3h-2l-2 5-5 4-27 12-17 8-8 1-4-5-4 1-6 11-7 4-13 5h-5l-2-6-1-13 1-47 1-19 6-3 21-7 26-9 32-10h5v5l10-1 1-1v-8z" fill="#000000"/>
<path transform="translate(762,1551)" d="m0 0h15l14 3 12 5 10 7 7 6 8 11 5 10 5 18v12l-4 16-4 9-7 11-11 11-13 8-17 5-7 1h-12l-15-3-16-8-10-8-8-9-8-16-3-9-1-5v-17l4-14 4-10 9-12 8-8 13-8 12-4zm1 27-10 3-11 8-8 11-3 8-1 4v10l3 11 7 11 9 7 10 4 5 1h12l10-3 11-7 6-7 5-9 1-4v-18l-7-14-5-6-11-7-9-3z" fill="#000000"/>
<path transform="translate(392,1594)" d="m0 0 97 1 1 2v20l-2 16-5 3-215 1-73-2-1-2 70-2 14-1 11-4 17-12 5-4v-3l-12-2-43-3-60-2-4-2 1-1 61-2z" fill="#000000"/>
<path transform="translate(1025,1553)" d="m0 0h91l2 7v15l-2 4h-64l1 10v14l52 1 1 1v23l-2 2-51 1v25h64l2 1v22l-1 2-67 1h-21l-5-1-1-126z" fill="#000000"/>
<path transform="translate(1067,303)" d="m0 0h68l1 1v64l-1 42-3 2-40 10-17 5h-6l-2-5-1-58v-58z" fill="#000000"/>
<path transform="translate(865,1552)" d="m0 0 29 1 3 5 26 62 6 15 1 3 2 1 3-10 5-12 5-13 20-50 2-1h28l-1 5-8 20-12 29-11 26-11 25-8 18-3 5-6 1h-14l-8-16-13-30-14-31-21-49z" fill="#000000"/>
<path transform="translate(786,710)" d="m0 0h23l10 3 14 8 11 11 8 16 3 11v18l-4 14-6 12-8 10-10 8-11 5-13 3h-13l-12-3-13-7-12-12-6-10-3-11-1-7-2-6-1-4v-9l4-13 5-10 8-10 8-8 14-7zm-3 8m-3 1 1 2 2-2zm-3 1-8 4-10 8v2h-2l-4 6v2h-2l-5 10-3 18 1 5 3-3 5-11 5-12 9-15 4-5 10-7-1-2zm18 17-11 4-10 9-4 7-2 9v15l4 9 6 7 7 3 11 1-1 3-8 6-1 3 8 2h8l11-2 9-6 8-10 5-13 1-5v-8l-4-13-5-8-8-7-12-6z" fill="#000000"/>
<path transform="translate(243,649)" d="m0 0 2 1 1 13h2l4 7 3 9v15l-3 7-7 5h-2v2l-8 3-18 5h-2v2l-10 7-9 3-15 2-35 10h-4l-1-2-1-15 1-17 9-4 18-7 21-7 7-2 3 3v2l9 1 3-16 2-14 3-3 19-6z" fill="#000000"/>
<path transform="translate(726,756)" d="m0 0 5 1 2 21 6 19 1 4v8l-6 4-21 5-9 1-3-1-1-4v-28l1-1v-14l3-7z" fill="#000000"/>
<path transform="translate(1254,593)" d="m0 0h7l1 1-1 7-4 7-7 4-25 6-52 11-63 14-9 1v-2l17-5 9-4 20-8 31-10 36-11 26-7z" fill="#000000"/>
<path transform="translate(915,554)" d="m0 0 3 1-1 3-20 6-8 2-19 6-21 6-16 5-47 14-21 7-22 6-20 7-24 7-9 1v-2l8-4 23-7 20-7 41-14 60-18 45-12z" fill="#000000"/>
<path transform="translate(1227,697)" d="m0 0h4v2l-12 4-52 12-21 5-42 9-54 12-31 6-9 1v-2l27-7 22-6 60-15 18-4 54-11 32-5z" fill="#000000"/>
<path transform="translate(174,812)" d="m0 0h4l1 5-4 4-19 9-16 7-88 33-49 17h-3v-2l23-10 28-11 27-11 20-8h3l1-3 10-2 1-2 7-1 19-6 20-7 11-6z" fill="#000000"/>
<path transform="translate(1475,477)" d="m0 0h12l30 3 18 4 4 4 1 3-2 4-3 1h-12l-28-3-10-3-9-6-4-4z" fill="#000000"/>
<path transform="translate(1522,579)" d="m0 0 1 2h2v2l35-2 28-1h18v3l-16 3-47 4-49 5h-9l-1-3 13-4 19-4h4z" fill="#000000"/>
<path transform="translate(1519,553)" d="m0 0h9l12 2 3 3-1 5v4l-16 8-8 3h-8l-7-7-2-4 1-4 7-6z" fill="#000000"/>
<path transform="translate(1172,365)" d="m0 0 6 1 23 11 3 3 1 6v12l-2 1-30-12-1-2z" fill="#000000"/>
<path transform="translate(1382,605)" d="m0 0 8 1 6 4 4 7-1 7-5 6-8 4-8-1-7-6-1-3v-8l2-5h2v-2z" fill="#000000"/>
<path transform="translate(747,837)" d="m0 0 4 1-1 4-9 4-30 9-41 13-16 5-14 4-18 6h-4l1-3 19-7 24-8 15-6 20-6 48-15z" fill="#000000"/>
<path transform="translate(1209,508)" d="m0 0h9l1 4-2 2-63 14h-8l-2-4 4-2 26-6 29-7z" fill="#000000"/>
<path transform="translate(796,762)" d="m0 0h9l7 6 1 7-3 6-6 5-5 1-7-3-3-4-1-8 3-6z" fill="#000000"/>
<path transform="translate(1577,773)" d="m0 0h7l-2 10-3 8-3 2-16 3h-5l-1-4 2-5h-2l1-3 1 1 1-2h2l2-5 7-3z" fill="#000000"/>
<path transform="translate(1725,672)" d="m0 0 5 1-1 5-6 10-12 3h-6l1-7 2-5 9-4z" fill="#000000"/>
<path transform="translate(1547,557)" d="m0 0 7 1 9 2 1 3-7-1-10-3z" fill="#000000"/>
<path transform="translate(712,581)" d="m0 0 2 1-1 3-6 2-1-2z" fill="#000000"/>
<path transform="translate(597,996)" d="m0 0 4 1-2 2-4-1z" fill="#000000"/>
<path transform="translate(569,1149)" d="m0 0h3v2l-4-1z" fill="#000000"/>
<path transform="translate(182,789)" d="m0 0h2l-1 3z" fill="#000000"/>
<path transform="translate(179,786)" d="m0 0h2v2h-2z" fill="#000000"/>
<path transform="translate(1299,776)" d="m0 0 2 1-2 2z" fill="#000000"/>
<path transform="translate(1361,768)" d="m0 0v3z" fill="#000000"/>
<path transform="translate(187,801)" d="m0 0 2 2h-2z" fill="#000000"/>
<path transform="translate(99,841)" d="m0 0" fill="#000000"/>
<path transform="translate(1553,790)" d="m0 0" fill="#000000"/>
<path transform="translate(1358,665)" d="m0 0 2 1z" fill="#000000"/>
<path transform="translate(210,1163)" d="m0 0" fill="#000000"/>
<path transform="translate(587,1146)" d="m0 0" fill="#000000"/>
<path transform="translate(621,1138)" d="m0 0" fill="#000000"/>
<path transform="translate(1552,792)" d="m0 0" fill="#000000"/>
<path transform="translate(1362,767)" d="m0 0" fill="#000000"/>
<path transform="translate(659,697)" d="m0 0" fill="#000000"/>
<path transform="translate(1366,667)" d="m0 0" fill="#000000"/>
<path transform="translate(575,590)" d="m0 0" fill="#000000"/>
<path transform="translate(1521,578)" d="m0 0" fill="#000000"/>
<path transform="translate(1356,556)" d="m0 0" fill="#000000"/>
</svg>